<?xml version="1.0" encoding="utf-8"?>
<!-- Generator: Adobe Illustrator 16.0.0, SVG Export Plug-In . SVG Version: 6.00 Build 0)  -->
<svg version="1.2" baseProfile="tiny" id="Layer_1" xmlns="http://www.w3.org/2000/svg" xmlns:xlink="http://www.w3.org/1999/xlink"
	 x="0px" y="0px" width="200px" height="200px" viewBox="0 0 200 200" xml:space="preserve">
<g>
	<rect width="200" height="200" opacity="0.60"/>
	<g>
		<path fill="#FFFFFF" d="M91.544,159.113c0,1.111-0.028,1.84-0.084,2.185c-0.121,0.765-0.429,1.396-0.924,1.89
			c-0.635,0.635-1.512,0.952-2.632,0.952h-3.598v-9.968h3.598c1.12,0,1.998,0.317,2.632,0.951c0.495,0.496,0.803,1.111,0.924,1.849
			C91.516,157.308,91.544,158.021,91.544,159.113z M89.598,159.113c0-0.803-0.023-1.367-0.07-1.693
			c-0.056-0.383-0.172-0.682-0.35-0.896c-0.336-0.41-0.822-0.615-1.456-0.615h-1.47v6.496h1.47c0.634,0,1.12-0.206,1.456-0.617
			c0.177-0.214,0.294-0.527,0.35-0.938C89.575,160.504,89.598,159.926,89.598,159.113z"/>
		<path fill="#FFFFFF" d="M100.63,164.14h-2.254l-1.946-3.976h-1.4v3.976h-1.946v-9.968h3.906c0.989,0,1.783,0.299,2.38,0.896
			c0.569,0.568,0.854,1.287,0.854,2.155c0,0.663-0.182,1.231-0.546,1.708c-0.327,0.42-0.751,0.724-1.274,0.91L100.63,164.14z
			 M98.278,157.217c0-0.391-0.131-0.705-0.392-0.947c-0.261-0.241-0.602-0.361-1.022-0.361H95.03v2.617h1.834
			c0.42,0,0.761-0.12,1.022-0.361C98.147,157.922,98.278,157.606,98.278,157.217z"/>
		<path fill="#FFFFFF" d="M109.436,164.14h-2.029l-0.588-1.765h-3.543l-0.602,1.765h-2.03l3.625-9.968h1.527L109.436,164.14z
			 M106.301,160.738l-1.219-3.627l-1.26,3.627H106.301z"/>
		<path fill="#FFFFFF" d="M116.828,160.014c0,1.394-0.309,2.414-0.924,3.059c-0.738,0.768-1.666,1.151-2.787,1.151
			c-1.062,0-1.959-0.364-2.688-1.092c-0.447-0.448-0.738-1.022-0.867-1.722c-0.076-0.411-0.113-1.162-0.113-2.254
			c0-1.093,0.037-1.844,0.113-2.254c0.129-0.701,0.42-1.275,0.867-1.723c0.729-0.729,1.625-1.092,2.688-1.092
			c0.672,0,1.242,0.098,1.709,0.294c0.438,0.196,0.887,0.522,1.344,0.979l-1.316,1.316c-0.309-0.309-0.568-0.522-0.783-0.645
			c-0.271-0.14-0.588-0.209-0.953-0.209c-0.514,0-0.928,0.177-1.246,0.531c-0.242,0.28-0.391,0.729-0.447,1.344
			c-0.02,0.168-0.027,0.654-0.027,1.457s0.008,1.287,0.027,1.455c0.057,0.625,0.205,1.078,0.447,1.358
			c0.309,0.345,0.725,0.519,1.246,0.519c0.541,0,0.984-0.188,1.33-0.561c0.289-0.317,0.434-0.77,0.434-1.357v-0.351h-1.764v-1.638
			h3.711V160.014z"/>
		<path fill="#FFFFFF" d="M59.863,172.707h-2.604v8.232h-1.946v-8.232h-2.604v-1.735h7.154V172.707z"/>
		<path fill="#FFFFFF" d="M67.703,175.955c0,1.083-0.042,1.834-0.126,2.254c-0.122,0.691-0.411,1.266-0.868,1.723
			c-0.728,0.729-1.624,1.092-2.688,1.092c-1.073,0-1.974-0.363-2.702-1.092c-0.448-0.448-0.738-1.021-0.868-1.723
			c-0.075-0.41-0.112-1.162-0.112-2.254s0.037-1.843,0.112-2.254c0.13-0.699,0.42-1.273,0.868-1.722
			c0.728-0.728,1.628-1.092,2.702-1.092c1.064,0,1.96,0.364,2.688,1.092c0.458,0.458,0.747,1.031,0.868,1.722
			C67.661,174.121,67.703,174.873,67.703,175.955z M65.757,175.955c0-0.765-0.01-1.25-0.028-1.455
			c-0.056-0.617-0.21-1.064-0.462-1.345c-0.317-0.354-0.733-0.532-1.246-0.532c-0.522,0-0.942,0.178-1.26,0.532
			c-0.243,0.28-0.392,0.728-0.448,1.345c-0.019,0.168-0.028,0.652-0.028,1.455s0.009,1.289,0.028,1.457
			c0.056,0.615,0.206,1.063,0.448,1.344c0.317,0.354,0.737,0.531,1.26,0.531c0.579,0,1.031-0.224,1.358-0.672
			C65.631,178.271,65.757,177.383,65.757,175.955z"/>
		<path fill="#FFFFFF" d="M80.554,180.939H78.3l-1.946-3.977h-1.4v3.977h-1.946v-9.968h3.906c0.989,0,1.783,0.299,2.38,0.896
			c0.569,0.57,0.854,1.288,0.854,2.156c0,0.662-0.182,1.232-0.546,1.708c-0.327,0.42-0.751,0.724-1.274,0.91L80.554,180.939z
			 M78.202,174.017c0-0.39-0.131-0.706-0.392-0.947s-0.602-0.362-1.022-0.362h-1.834v2.619h1.834c0.42,0,0.761-0.121,1.022-0.363
			C78.071,174.723,78.202,174.406,78.202,174.017z"/>
		<path fill="#FFFFFF" d="M88.227,180.939h-6.566v-9.968h6.566v1.735h-4.62v2.338h3.934v1.736h-3.934v2.422h4.62V180.939z"/>
		<path fill="#FFFFFF" d="M97.088,180.939h-2.03l-0.588-1.764h-3.542l-0.602,1.764h-2.03l3.626-9.968h1.526L97.088,180.939z
			 M93.952,177.537l-1.218-3.625l-1.26,3.625H93.952z"/>
		<path fill="#FFFFFF" d="M105.404,180.939h-2.254l-1.947-3.977h-1.399v3.977h-1.946v-9.968h3.905c0.99,0,1.783,0.299,2.381,0.896
			c0.568,0.57,0.854,1.288,0.854,2.156c0,0.662-0.182,1.232-0.547,1.708c-0.326,0.42-0.75,0.724-1.273,0.91L105.404,180.939z
			 M103.053,174.017c0-0.39-0.131-0.706-0.393-0.947s-0.602-0.362-1.021-0.362h-1.834v2.619h1.834c0.42,0,0.76-0.121,1.021-0.363
			C102.922,174.723,103.053,174.406,103.053,174.017z"/>
		<path fill="#FFFFFF" d="M114.057,180.939h-2.254l-1.947-3.977h-1.4v3.977h-1.945v-9.968h3.906c0.988,0,1.783,0.299,2.381,0.896
			c0.568,0.57,0.854,1.288,0.854,2.156c0,0.662-0.182,1.232-0.547,1.708c-0.326,0.42-0.752,0.724-1.273,0.91L114.057,180.939z
			 M111.703,174.017c0-0.39-0.131-0.706-0.391-0.947c-0.262-0.241-0.604-0.362-1.023-0.362h-1.834v2.619h1.834
			c0.42,0,0.762-0.121,1.023-0.363C111.572,174.723,111.703,174.406,111.703,174.017z"/>
		<path fill="#FFFFFF" d="M122.861,180.939h-2.029l-0.588-1.764h-3.543l-0.602,1.764h-2.029l3.625-9.968h1.527L122.861,180.939z
			 M119.727,177.537l-1.219-3.625l-1.26,3.625H119.727z"/>
		<path fill="#FFFFFF" d="M131.262,180.939h-1.736l-3.947-6.118v6.118h-1.947v-9.968h1.736l3.949,6.104v-6.104h1.945V180.939z"/>
		<path fill="#FFFFFF" d="M139.955,176.812c0,1.395-0.307,2.414-0.924,3.061c-0.736,0.768-1.666,1.15-2.785,1.15
			c-1.064,0-1.961-0.363-2.688-1.092c-0.449-0.448-0.738-1.021-0.869-1.723c-0.074-0.41-0.111-1.162-0.111-2.254
			s0.037-1.843,0.111-2.254c0.131-0.699,0.42-1.273,0.869-1.722c0.727-0.728,1.623-1.092,2.688-1.092
			c0.672,0,1.24,0.098,1.707,0.294c0.439,0.195,0.887,0.522,1.344,0.98l-1.314,1.315c-0.309-0.308-0.57-0.522-0.785-0.644
			c-0.27-0.141-0.588-0.211-0.951-0.211c-0.514,0-0.93,0.178-1.246,0.532c-0.242,0.28-0.393,0.728-0.449,1.345
			c-0.018,0.168-0.027,0.652-0.027,1.455s0.01,1.289,0.027,1.457c0.057,0.625,0.207,1.077,0.449,1.357
			c0.309,0.346,0.723,0.518,1.246,0.518c0.541,0,0.984-0.186,1.33-0.56c0.289-0.317,0.434-0.771,0.434-1.358v-0.35h-1.764v-1.639
			h3.709V176.812z"/>
		<path fill="#FFFFFF" d="M147.711,180.939h-6.564v-9.968h6.564v1.735h-4.619v2.338h3.934v1.736h-3.934v2.422h4.619V180.939z"/>
	</g>
</g>
</svg>
