<?xml version="1.0" encoding="utf-8"?>
<!-- Generator: Adobe Illustrator 16.0.3, SVG Export Plug-In . SVG Version: 6.00 Build 0)  -->
<svg version="1.2" baseProfile="tiny" id="Layer_1" xmlns="http://www.w3.org/2000/svg" xmlns:xlink="http://www.w3.org/1999/xlink"
	 x="0px" y="0px" width="96px" height="25px" viewBox="0 0 96 25" xml:space="preserve">
<g>
	<g>
		<path fill="#FFFFFF" d="M54.035,24.732h-5.323V12.368h-2.659V8.106h2.659V5.548c0-3.476,1.504-5.545,5.769-5.545h3.55v4.263
			h-2.218c-1.662,0-1.772,0.596-1.772,1.708l-0.005,2.132h4.023l-0.473,4.262h-3.551V24.732z"/>
	</g>
	<path fill="#FFFFFF" d="M31.015,11.575c-0.97,0-1.907-0.136-2.793-0.384c0-0.03,0-0.06,0-0.091c0.155,0.02,0.316,0.03,0.479,0.03
		c1.3,0,2.445-0.629,3.129-1.587c-0.612,0.246-1.283,0.382-1.987,0.382c-0.63,0-1.233-0.109-1.789-0.308
		c-0.144-0.658-0.376-1.301-0.708-1.913c-2.406-4.452-6.177-3.977-6.177-3.977s2.777-0.54,2.646-1.276
		c-0.13-0.738-2.695,0.404-2.695,0.404s1.424-0.77,1.224-1.096c-0.19-0.311-2.305,0.961-2.305,0.961s0.348-0.492,0.215-0.635
		c-0.134-0.143-1.819,1.271-3.108,3.364c-1.291,2.094-1.803,4.013-1.803,4.013s-0.664-0.812-2.166-1.824
		C11.571,6.56,4.745,4.055,4.745,4.055S4.483,4.904,5.447,6.394c0.606,0.94,1.946,1.487,1.946,1.487s-0.552,0-0.98,0.06
		c-0.398,0.056-0.88,0.167-0.88,0.167S5.396,9.213,6.65,10.167c1.253,0.952,2.341,1.048,2.341,1.048s-0.682,0.049-1.197,0.225
		c-0.534,0.184-0.92,0.644-0.92,0.644s0.409,0.794,1.268,1.365c1.134,0.753,2.604,0.515,2.604,0.515s-1.316,0.338-1.23,1.372
		c0.123,1.518,2.347,1.211,2.347,1.211c-1.527,1.587-3.729,2.511-6.158,2.511c-2.196,0-4.213-0.74-5.703-2.071
		c0,0,8.422,11.14,22.606,3.167c2.902-1.632,4.924-4.441,5.469-7.352c0.256,0.049,0.521,0.076,0.792,0.076
		c1.206,0,2.284-0.52,3.009-1.336C31.591,11.56,31.305,11.575,31.015,11.575z"/>
	<path fill-rule="evenodd" fill="#FFFFFF" d="M83.607,16.156c-0.604,2.542-1.196,4.992-2.489,6.926
		c-0.393,0.592-0.792,1.337-1.465,1.656c-1.001-4.936,1.084-9.092,1.912-13.242c-1.055-2.06-0.398-5.552,1.851-5.945
		c3.261-0.575,2.403,3.206,1.849,4.965c-0.303,0.963-0.85,1.885-0.766,2.944c0.18,2.228,3.099,2.371,4.591,1.226
		c2.143-1.644,2.759-4.814,2.552-7.419c-0.317-3.965-4.991-5.938-9.118-4.353c-2.126,0.819-4.059,2.697-4.338,5.456
		c-0.148,1.455,0.17,2.614,0.764,3.434c0.092,0.124,0.402,0.343,0.447,0.674c0.093,0.673-0.323,1.399-0.701,1.901
		c-2.114-0.586-3.206-2.411-3.38-4.719c-0.398-5.255,4.088-9.253,9.374-9.625c5.637-0.396,10.109,2.732,10.523,7.295
		c0.308,3.392-0.942,6.807-2.933,8.643c-1.493,1.379-4.672,2.73-7.27,1.41C84.434,17.088,84.18,16.73,83.607,16.156z"/>
</g>
</svg>
