<?xml version="1.0" encoding="utf-8"?>
<!-- Generator: Adobe Illustrator 16.0.0, SVG Export Plug-In . SVG Version: 6.00 Build 0)  -->
<svg version="1.2" baseProfile="tiny" id="Layer_1" xmlns="http://www.w3.org/2000/svg" xmlns:xlink="http://www.w3.org/1999/xlink"
	 x="0px" y="0px" width="22px" height="29px" viewBox="0 0 22 29" xml:space="preserve">
<path fill="#5BA5F4" d="M20.5,24.5c0-0.828,0.672-1.5,1.5-1.5v-2c-0.828,0-1.5-0.672-1.5-1.5S21.172,18,22,18v-2
	c-0.828,0-1.5-0.672-1.5-1.5S21.172,13,22,13v-2c-0.828,0-1.5-0.672-1.5-1.5S21.172,8,22,8V6c-0.828,0-1.5-0.672-1.5-1.5
	S21.172,3,22,3V1h-2c0,0.828-0.672,1.5-1.5,1.5S17,1.828,17,1h-2c0,0.828-0.672,1.5-1.5,1.5S12,1.828,12,1h-2
	c0,0.828-0.671,1.5-1.5,1.5S7,1.828,7,1H5c0,0.828-0.671,1.5-1.5,1.5S2,1.828,2,1H0v2c0.829,0,1.5,0.672,1.5,1.5S0.829,6,0,6v2
	c0.829,0,1.5,0.672,1.5,1.5S0.829,11,0,11v2c0.829,0,1.5,0.672,1.5,1.5S0.829,16,0,16v2c0.829,0,1.5,0.672,1.5,1.5S0.829,21,0,21v2
	c0.829,0,1.5,0.672,1.5,1.5S0.829,26,0,26v2h2c0-0.828,0.671-1.5,1.5-1.5S5,27.172,5,28h2c0-0.828,0.671-1.5,1.5-1.5
	S10,27.172,10,28h2c0-0.828,0.672-1.5,1.5-1.5S15,27.172,15,28h2c0-0.828,0.672-1.5,1.5-1.5S20,27.172,20,28h2v-2
	C21.172,26,20.5,25.328,20.5,24.5z"/>
<polygon fill="#FFFFFF" points="8.879,15.914 4.636,11.672 1.808,14.5 6.05,18.743 8.879,21.571 11.707,18.743 20.192,10.258 
	17.364,7.429 "/>
</svg>
