<?xml version="1.0" encoding="utf-8"?>
<!-- Generator: Adobe Illustrator 16.0.0, SVG Export Plug-In . SVG Version: 6.00 Build 0)  -->
<svg version="1.2" baseProfile="tiny" id="Layer_1" xmlns="http://www.w3.org/2000/svg" xmlns:xlink="http://www.w3.org/1999/xlink"
	 x="0px" y="0px" width="53px" height="46px" viewBox="0 0 53 46" xml:space="preserve">
<g>
	<polygon fill="#FFB400" points="2.829,44.5 26.5,3.5 50.172,44.5 	"/>
	<path d="M52.77,46H0.23L26.5,0.5L52.77,46z M5.427,43h42.146L26.5,6.5L5.427,43z"/>
	<g>
		<g>
			<path d="M28.856,17.556l-0.966,14.315H25.08l-0.937-14.315H28.856z M28.799,36.203c0,0.625-0.23,1.162-0.688,1.609
				c-0.46,0.45-1.001,0.674-1.625,0.674c-0.625,0-1.161-0.224-1.61-0.674c-0.449-0.447-0.673-0.984-0.673-1.609
				c0-0.624,0.224-1.166,0.673-1.625c0.449-0.457,0.985-0.688,1.61-0.688c0.624,0,1.165,0.23,1.625,0.688
				C28.568,35.037,28.799,35.579,28.799,36.203z"/>
		</g>
	</g>
</g>
</svg>
