<?xml version="1.0" encoding="utf-8"?>
<!-- Generator: Adobe Illustrator 16.0.4, SVG Export Plug-In . SVG Version: 6.00 Build 0)  -->
<!DOCTYPE svg PUBLIC "-//W3C//DTD SVG 1.1//EN" "http://www.w3.org/Graphics/SVG/1.1/DTD/svg11.dtd">
<svg version="1.1" id="Layer_1" xmlns="http://www.w3.org/2000/svg" xmlns:xlink="http://www.w3.org/1999/xlink" x="0px" y="0px"
	 width="768px" height="80px" viewBox="0 0 768 80" enable-background="new 0 0 768 80" xml:space="preserve">
<rect fill="#F8B000" width="768" height="80"/>
<g>
	<path fill="#FFFFFF" d="M102.125,33.514c0,3.332-1.144,6.035-3.43,8.109c-2.287,2.075-5.113,3.111-8.477,3.111h-5.243V57.18H76.4
		V22.293h13.818c3.364,0,6.174,1.013,8.428,3.037C100.965,27.455,102.125,30.182,102.125,33.514z M93.55,33.514
		c0-1.012-0.36-1.854-1.078-2.523c-0.719-0.67-1.601-1.004-2.646-1.004h-4.851v7.055h4.851c1.045,0,1.927-0.334,2.646-1.004
		C93.19,35.368,93.55,34.526,93.55,33.514z"/>
	<path fill="#FFFFFF" d="M131.28,57.182h-8.967l-1.617-5.195h-10.731l-1.715,5.195h-8.967l12.691-34.889h6.615L131.28,57.182z
		 M118.442,44.832l-2.94-9.31l-3.136,9.31H118.442z"/>
	<path fill="#FFFFFF" d="M158.181,41.941c0,10.354-4.557,15.533-13.671,15.533c-3.92,0-7.154-1.308-9.702-3.92
		c-1.634-1.666-2.695-3.822-3.185-6.47c-0.229-1.403-0.343-3.854-0.343-7.35c0-3.494,0.114-5.945,0.344-7.35
		c0.491-2.646,1.554-4.803,3.19-6.469c2.553-2.612,5.793-3.92,9.72-3.92c3.73,0,6.807,1.014,9.229,3.039
		c2.421,2.025,3.895,4.867,4.418,8.525h-8.646c-0.656-2.613-2.326-3.92-5.012-3.92c-3.111,0-4.667,2.581-4.667,7.742v4.802
		c0,2.223,0.243,3.904,0.731,5.049c0.715,1.729,2.031,2.596,3.949,2.596c3.413,0,5.12-1.861,5.12-5.586h-5.145v-7.153h13.671
		L158.181,41.941L158.181,41.941z"/>
	<path fill="#FFFFFF" d="M186.551,57.182h-23.716V22.293h23.716v7.644H171.41v5.831h12.936v7.645H171.41v6.125h15.141V57.182
		L186.551,57.182z"/>
	<path fill="#FFFFFF" d="M214.971,29.937H199.83v6.125h12.936v7.644H199.83v13.476h-8.575V22.293h23.716V29.937L214.971,29.937z"/>
	<path fill="#FFFFFF" d="M240.597,57.182h-23.226V22.293h8.575v27.244h14.651V57.182z"/>
	<path fill="#FFFFFF" d="M252.356,57.182h-8.575V22.293h8.575V57.182z"/>
	<path fill="#FFFFFF" d="M283.912,33.514c0,3.332-1.144,6.035-3.43,8.109c-2.287,2.075-5.113,3.111-8.477,3.111h-5.243V57.18h-8.575
		V22.293h13.818c3.364,0,6.174,1.013,8.428,3.037C282.752,27.455,283.912,30.182,283.912,33.514z M275.337,33.514
		c0-1.012-0.36-1.854-1.078-2.523c-0.719-0.67-1.601-1.004-2.646-1.004h-4.851v7.055h4.851c1.045,0,1.927-0.334,2.646-1.004
		C274.978,35.368,275.337,34.526,275.337,33.514z"/>
	<path fill="#FFFFFF" d="M303.413,55.025c-1.617,1.615-3.822,2.498-6.712,2.498c-2.842,0-5.193-0.783-6.712-2.353
		c-1.323-1.321-2.156-3.185-2.352-5.685h2.499c0.49,3.725,2.499,5.83,6.565,5.83c1.911,0,3.675-0.637,4.802-1.764
		c2.058-2.058,2.106-5.193,2.106-7.789c0-4.361-0.784-9.311-6.516-9.311c-3.185,0-5.585,1.323-6.321,3.675h-2.205V22.295h16.757
		V24.5h-14.552v12.348c1.519-1.764,3.773-2.598,6.615-2.598c2.499,0,4.507,0.735,5.879,2.107c2.45,2.449,2.842,6.125,2.842,9.407
		C306.107,49.096,305.912,52.525,303.413,55.025z"/>
	<path fill="#FFFFFF" d="M339.868,42.384h-10.144v14.798h-2.646V22.295h12.788c6.025,0,10.533,3.676,10.533,10.045
		C350.4,38.709,345.895,42.384,339.868,42.384z M339.574,24.647h-9.849v15.385h9.849c4.802,0,8.183-2.45,8.183-7.692
		C347.757,27.098,344.376,24.647,339.574,24.647z"/>
	<path fill="#FFFFFF" d="M376.96,53.996c-2.058,2.059-5.096,3.186-8.721,3.186h-11.711V22.295h11.711
		c3.625,0,6.663,1.127,8.721,3.186c3.527,3.527,3.381,9.064,3.381,13.768S380.487,50.469,376.96,53.996z M375.099,27.342
		c-2.01-2.058-4.704-2.694-7.497-2.694h-8.427V54.83h8.427c2.793,0,5.487-0.639,7.497-2.694c2.793-2.842,2.597-9.016,2.597-12.887
		S377.892,30.184,375.099,27.342z"/>
	<path fill="#FFFFFF" d="M390.927,24.647v14.355h15.776v2.354h-15.776V57.18h-2.646V22.295h21.166v2.353L390.927,24.647
		L390.927,24.647z"/>
	<path fill="#FFFFFF" d="M436.642,57.475c-3.281,0-6.418-1.272-8.721-3.576c-3.185-3.186-3.234-6.271-3.234-14.159
		c0-7.889,0.051-10.975,3.234-14.16c2.303-2.303,5.438-3.576,8.721-3.576c6.224,0,10.73,3.87,11.857,10.191h-2.695
		c-1.027-4.803-4.458-7.84-9.162-7.84c-2.498,0-4.85,0.931-6.612,2.695c-2.5,2.498-2.695,5.193-2.695,12.689
		c0,7.497,0.195,10.192,2.695,12.689c1.764,1.765,4.114,2.695,6.612,2.695c4.704,0,8.232-3.038,9.262-7.84h2.597
		C447.372,53.604,442.767,57.475,436.642,57.475z"/>
	<path fill="#FFFFFF" d="M475.448,53.898c-2.304,2.303-5.438,3.576-8.722,3.576c-3.282,0-6.418-1.273-8.721-3.576
		c-3.186-3.187-3.234-6.271-3.234-14.161c0-7.889,0.05-10.975,3.234-14.16c2.303-2.303,5.438-3.576,8.721-3.576
		c3.283,0,6.418,1.273,8.722,3.576c3.186,3.186,3.233,6.271,3.233,14.16C478.682,47.627,478.634,50.713,475.448,53.898z
		 M473.342,27.049c-1.764-1.765-4.115-2.695-6.614-2.695c-2.497,0-4.851,0.931-6.613,2.695c-2.499,2.498-2.694,5.193-2.694,12.689
		c0,7.497,0.195,10.192,2.694,12.689c1.764,1.765,4.116,2.695,6.613,2.695c2.499,0,4.852-0.933,6.614-2.695
		c2.499-2.497,2.694-5.192,2.694-12.689C476.036,32.242,475.841,29.547,473.342,27.049z"/>
	<path fill="#FFFFFF" d="M509.405,57.182l-20.138-30.33v30.33h-2.646V22.295h2.646l20.138,30.23v-30.23h2.646v34.887H509.405z"/>
	<path fill="#FFFFFF" d="M530.183,57.182h-2.254l-11.465-34.887h2.793l9.799,30.23l9.8-30.23h2.793L530.183,57.182z"/>
	<path fill="#FFFFFF" d="M546.06,57.182V22.295h21.166v2.353h-18.521v13.768h15.777v2.354h-15.777v14.062h18.521v2.353H546.06
		V57.182z"/>
	<path fill="#FFFFFF" d="M594.469,57.182l-8.329-16.072h-9.604v16.072h-2.646V22.295h13.277c5.684,0,9.996,3.283,9.996,9.359
		c0,5.193-3.136,8.574-8.036,9.407l8.428,16.119h-3.086V57.182z M586.825,24.647h-10.289v14.11h10.289
		c4.459,0,7.691-2.254,7.691-7.055C594.518,26.901,591.284,24.647,586.825,24.647z"/>
	<path fill="#FFFFFF" d="M613.729,24.647V57.18h-2.646V24.647h-10.388v-2.353h23.469v2.353H613.729z"/>
	<path fill="#FFFFFF" d="M629.555,57.182V22.295h21.166v2.353H632.2v13.768h15.776v2.354H632.2v14.062h18.521v2.353h-21.166V57.182z
		"/>
	<path fill="#FFFFFF" d="M677.965,57.182l-8.329-16.072h-9.604v16.072h-2.646V22.295h13.277c5.684,0,9.996,3.283,9.996,9.359
		c0,5.193-3.136,8.574-8.036,9.407l8.428,16.119h-3.086V57.182z M670.321,24.647h-10.289v14.11h10.289
		c4.459,0,7.691-2.254,7.691-7.055C678.014,26.901,674.78,24.647,670.321,24.647z"/>
</g>
</svg>
