<?xml version="1.0" encoding="utf-8"?>
<!-- Generator: Adobe Illustrator 16.0.3, SVG Export Plug-In . SVG Version: 6.00 Build 0)  -->
<svg version="1.2" baseProfile="tiny" id="Layer_1" xmlns="http://www.w3.org/2000/svg" xmlns:xlink="http://www.w3.org/1999/xlink"
	 x="0px" y="0px" width="768px" height="80px" viewBox="0 0 768 80" xml:space="preserve">
<rect fill="#FF3E44" width="768" height="80"/>
<g>
	<path fill="#FFFFFF" d="M102.125,34.221c0,3.332-1.144,6.036-3.43,8.109c-2.287,2.075-5.113,3.111-8.477,3.111h-5.243v12.446H76.4
		V23h13.818c3.364,0,6.174,1.013,8.428,3.038C100.965,28.162,102.125,30.889,102.125,34.221z M93.55,34.221
		c0-1.012-0.36-1.854-1.078-2.523c-0.719-0.669-1.601-1.004-2.646-1.004h-4.851v7.056h4.851c1.045,0,1.927-0.334,2.646-1.004
		C93.19,36.075,93.55,35.233,93.55,34.221z"/>
	<path fill="#FFFFFF" d="M131.28,57.888h-8.967l-1.617-5.194h-10.731l-1.715,5.194h-8.967L111.974,23h6.615L131.28,57.888z
		 M118.442,45.539l-2.94-9.31l-3.136,9.31H118.442z"/>
	<path fill="#FFFFFF" d="M158.181,42.648c0,10.355-4.557,15.533-13.671,15.533c-3.92,0-7.154-1.307-9.702-3.92
		c-1.634-1.666-2.695-3.822-3.185-6.469c-0.229-1.403-0.343-3.854-0.343-7.35c0-3.495,0.114-5.945,0.344-7.35
		c0.491-2.646,1.554-4.802,3.19-6.468c2.553-2.613,5.793-3.92,9.72-3.92c3.73,0,6.807,1.013,9.229,3.038
		c2.421,2.026,3.895,4.868,4.418,8.526h-8.646c-0.656-2.613-2.326-3.92-5.012-3.92c-3.111,0-4.667,2.581-4.667,7.742v4.802
		c0,2.222,0.243,3.904,0.731,5.048c0.715,1.73,2.031,2.596,3.949,2.596c3.413,0,5.12-1.861,5.12-5.586h-5.145v-7.153h13.671V42.648z
		"/>
	<path fill="#FFFFFF" d="M186.551,57.888h-23.716V23h23.716v7.644H171.41v5.831h12.936v7.645H171.41v6.125h15.141V57.888z"/>
	<path fill="#FFFFFF" d="M214.971,30.644H199.83v6.125h12.936v7.644H199.83v13.476h-8.575V23h23.716V30.644z"/>
	<path fill="#FFFFFF" d="M240.597,57.888h-23.226V23h8.575v27.245h14.651V57.888z"/>
	<path fill="#FFFFFF" d="M252.356,57.888h-8.575V23h8.575V57.888z"/>
	<path fill="#FFFFFF" d="M283.912,34.221c0,3.332-1.144,6.036-3.43,8.109c-2.287,2.075-5.113,3.111-8.477,3.111h-5.243v12.446
		h-8.575V23h13.818c3.364,0,6.174,1.013,8.428,3.038C282.752,28.162,283.912,30.889,283.912,34.221z M275.337,34.221
		c0-1.012-0.36-1.854-1.078-2.523c-0.719-0.669-1.601-1.004-2.646-1.004h-4.851v7.056h4.851c1.045,0,1.927-0.334,2.646-1.004
		C274.978,36.075,275.337,35.233,275.337,34.221z"/>
	<path fill="#FFFFFF" d="M303.413,55.732c-1.617,1.616-3.822,2.498-6.712,2.498c-2.842,0-5.193-0.783-6.712-2.352
		c-1.323-1.322-2.156-3.185-2.352-5.684h2.499c0.49,3.724,2.499,5.83,6.565,5.83c1.911,0,3.675-0.637,4.802-1.764
		c2.058-2.058,2.106-5.193,2.106-7.79c0-4.36-0.784-9.309-6.516-9.309c-3.185,0-5.585,1.323-6.321,3.674h-2.205V23.002h16.757v2.205
		h-14.552v12.347c1.519-1.764,3.773-2.597,6.615-2.597c2.499,0,4.507,0.735,5.879,2.107c2.45,2.45,2.842,6.125,2.842,9.407
		C306.107,49.803,305.912,53.232,303.413,55.732z"/>
	<path fill="#FFFFFF" d="M353.244,57.888h-2.695l-8.231-30.377l-8.231,30.377h-2.695l-8.721-34.885h2.792l7.35,30.329l8.133-30.329
		h2.744l8.133,30.329l7.35-30.329h2.793L353.244,57.888z"/>
	<path fill="#FFFFFF" d="M388.377,57.888l-3.037-8.476h-16.268l-3.038,8.476h-2.842l12.836-34.885h2.353l12.837,34.885H388.377z
		 M377.205,26.53l-7.3,20.529h14.601L377.205,26.53z"/>
	<path fill="#FFFFFF" d="M417.922,57.888l-8.328-16.071h-9.604v16.071h-2.646V23.002h13.279c5.684,0,9.994,3.283,9.994,9.358
		c0,5.193-3.135,8.575-8.035,9.407l8.428,16.12H417.922z M410.279,25.354H399.99v14.111h10.289c4.459,0,7.693-2.254,7.693-7.056
		C417.973,27.608,414.738,25.354,410.279,25.354z"/>
	<path fill="#FFFFFF" d="M452.32,57.888l-20.137-30.329v30.329h-2.646V23.002h2.646l20.137,30.23v-30.23h2.646v34.885H452.32z"/>
	<path fill="#FFFFFF" d="M465.748,57.888V23.002h2.646v34.885H465.748z"/>
	<path fill="#FFFFFF" d="M501.957,57.888l-20.139-30.329v30.329h-2.645V23.002h2.645l20.139,30.23v-30.23h2.645v34.885H501.957z"/>
	<path fill="#FFFFFF" d="M535.129,54.164c-2.303,2.548-5.635,4.018-9.162,4.018c-3.281,0-6.418-1.273-8.721-3.576
		c-3.186-3.186-3.234-6.271-3.234-14.16s0.049-10.975,3.234-14.16c2.303-2.303,5.439-3.577,8.721-3.577
		c6.125,0,10.828,4.018,11.906,10.191h-2.645c-1.029-4.802-4.557-7.839-9.262-7.839c-2.498,0-4.85,0.931-6.613,2.695
		c-2.5,2.499-2.695,5.193-2.695,12.69c0,7.496,0.195,10.191,2.695,12.689c1.764,1.764,4.115,2.695,6.613,2.695
		c2.744,0,5.439-1.176,7.252-3.381c1.52-1.861,2.107-3.92,2.107-6.908v-3.137h-9.359v-2.351h12.004v5.683
		C537.971,49.362,537.188,51.959,535.129,54.164z"/>
</g>
</svg>
